<?xml version="1.0" encoding="UTF-8"?>
<svg id="Layer_1" xmlns="http://www.w3.org/2000/svg" version="1.1" viewBox="0 0 1080 976">
  <!-- Generator: Adobe Illustrator 29.4.0, SVG Export Plug-In . SVG Version: 2.1.0 Build 152)  -->
  <defs>
    <style>
      .st0 {
        fill: #7a7a7a;
      }

      .st1 {
        fill: #c64a32;
      }

      .st2 {
        fill: #4fc931;
      }
    </style>
  </defs>
  <path class="st0" d="M820.62,772.38c-26.99-27-53.77-53.71-80.47-80.5-13.27-13.31-19.35-29.21-16.58-48.08.5-3.4-.37-5.97-2.9-8.47-13.17-12.98-26.26-26.05-39.18-39.28-3.13-3.2-5.32-3.66-9.11-.74-31.87,24.49-67.69,40.81-107.2,47.53-79.1,13.46-150.13-5.19-211.46-57.38-46.14-39.26-74.83-89.33-84.52-148.97-13.18-81.09,7.77-153.09,62.94-214.48,33.81-37.63,75.68-62.42,124.61-74.6,63.55-15.83,124.65-8.16,182.5,22.57,44.76,23.78,78.83,58.6,103.36,102.89,2.21,3.99,2.17,6.57-1.48,9.78-10.25,9.03-20.1,18.5-30.16,27.74-1.68,1.55-3.17,3.43-5.42,4.15-1.7-.71-2-2.31-2.6-3.63-21.59-46.92-55.82-81.16-103.05-102.08-32.02-14.18-65.63-19.01-100.5-15.74-38.16,3.58-72.48,16.99-102.73,40.32-40.42,31.18-66.37,71.93-75.19,122.24-12.29,70.09,6.56,131.34,57.03,181.91,30.21,30.27,67.18,48.35,109.38,54.86,82.44,12.7,163.73-25.77,205.33-97.84,15.66-27.12,24.9-56.2,26.53-87.53.4-7.65,2.56-13.55,8.82-18.83,12.34-10.41,23.77-21.89,35.59-32.9,1.19-1.11,2.5-2.09,4.04-3.38,2.96,3.71,2.44,7.95,2.86,11.67,4.5,40.52.07,80.03-14.18,118.33-8.6,23.11-20.45,44.44-35.19,64.19-3.93,5.26-3.78,5.66.93,10.36,12.61,12.59,25.24,25.17,37.71,37.91,2.64,2.69,5.04,4.04,9.09,3.45,21.13-3.07,37.55,5.48,52.14,20.29,38.8,39.39,78.1,78.3,117.2,117.41,4.95,4.95,10.01,9.79,14.72,14.95,19.88,21.79,19.33,55.4-1.11,75.55-21.76,21.45-55.07,22.08-76.96.93-18.45-17.82-36.38-36.19-54.78-54.57Z"/>
  <path class="st2" d="M420.72,265.58c22.21-13.54,49.58-9.61,66.62,4.68,20.21,16.94,26.4,45.6,14.32,69.74-1.95,3.89-1.77,6.16,1.13,9.48,19.3,22.06,38.4,44.3,57.4,66.62,2.55,2.99,4.76,3.73,8.53,2.48,14.86-4.93,29.56-4.12,43.69,2.69,3.47,1.67,5.43.58,7.83-1.67,30.95-28.84,61.95-57.63,92.95-86.41,30.76-28.55,61.48-57.15,92.4-85.53,4.36-4,5.83-7.01,3.65-13.38-11.38-33.33,9.61-68.59,44.32-74.14,34.51-5.52,62.09,18.15,65.89,48.38,2.75,21.92-4.64,39.86-21.91,53.12-17.56,13.48-37.25,15.46-57.49,6.59-5.55-2.43-8.49-.64-12.13,2.76-26.38,24.71-52.82,49.35-79.28,73.96-35.37,32.89-70.75,65.76-106.25,98.51-3.03,2.8-3.06,5.16-1.76,8.72,12.42,34.22-7.55,70.09-43.24,76.4-38.62,6.82-66.8-23.92-66.87-54.25-.03-10.4,1.79-20.18,6.83-29.27,1.44-2.59,1.05-4.44-.88-6.67-19.67-22.63-39.28-45.31-58.8-68.07-2.35-2.74-4.29-3.64-8.03-2.28-14.44,5.25-28.86,4.3-42.73-2.08-4.25-1.96-6.73-1.25-10,1.83-24.01,22.61-48.21,45.01-72.35,67.46-.71.66-1.37,1.49-3.15,1.33-2.82-8.62-3.32-17.86-4.86-26.93-1.42-8.38,1.54-13.64,7.82-19.15,17.52-15.37,34.24-31.64,51.41-47.41,2.58-2.37,3.27-4.34,2.05-7.76-9.85-27.61-1.6-52.79,22.88-69.75M886.66,223.01c3.07-11.08-1.57-22.28-11.65-28.12-8.85-5.12-21.32-3.54-28.67,3.65-8.36,8.18-10.17,20.16-4.26,30.06,5.26,8.82,13.27,13.05,23.44,12.01,10.38-1.06,17.2-7.18,21.14-17.6M449.11,289.96c-12.02,1.52-20.98,9.64-22.69,20.55-2.03,12.97,8.34,26.69,21.24,28.09,14.25,1.55,27.69-10.17,27.88-24.32.18-13.41-11.85-24.91-26.43-24.33M592.64,496.46c13.26-4.32,20.16-14.03,19.03-26.78-1.19-13.34-14.08-23.08-28.18-21.29-12.52,1.59-22.51,15.13-20.3,27.53,2.54,14.32,12.94,21.84,29.45,20.55Z"/>
  <path class="st1" d="M209.06,616.11c-29.71,22.68-74.79,9.46-87.25-25.27-12.55-35.01,7.99-70.7,44.58-76.74,11.32-1.87,22.67-.52,33.09,4.9,3.6,1.87,5.88,1.14,8.71-1.56,15.45-14.7,31.09-29.19,46.69-43.73.82-.76,1.5-1.84,3.4-1.74,1.92,5.37,3.92,10.95,5.92,16.53.5,1.41.94,2.85,1.5,4.23,4.53,11.14,4.6,11.2-3.99,19.32-10.54,9.95-21.15,19.82-31.84,29.6-2.47,2.26-3.25,4.06-1.91,7.61,9.42,24.92,2.1,50.56-18.9,66.84M178.93,594.66c15.24-3.49,23.71-16.76,19.75-30.96-3.53-12.68-17.62-20.56-30.32-16.96-12.78,3.62-20.32,16.94-17.09,29.7,2.96,11.66,14.55,20.01,27.66,18.22Z"/>
</svg>
